%TF.GenerationSoftware,KiCad,Pcbnew,10.0.3*%
%TF.CreationDate,2026-06-28T15:12:38-07:00*%
%TF.ProjectId,Board,426f6172-642e-46b6-9963-61645f706362,rev?*%
%TF.SameCoordinates,Original*%
%TF.FileFunction,Soldermask,Top*%
%TF.FilePolarity,Negative*%
%FSLAX46Y46*%
G04 Gerber Fmt 4.6, Leading zero omitted, Abs format (unit mm)*
G04 Created by KiCad (PCBNEW 10.0.3) date 2026-06-28 15:12:38*
%MOMM*%
%LPD*%
G01*
G04 APERTURE LIST*
G04 Aperture macros list*
%AMRoundRect*
0 Rectangle with rounded corners*
0 $1 Rounding radius*
0 $2 $3 $4 $5 $6 $7 $8 $9 X,Y pos of 4 corners*
0 Add a 4 corners polygon primitive as box body*
4,1,4,$2,$3,$4,$5,$6,$7,$8,$9,$2,$3,0*
0 Add four circle primitives for the rounded corners*
1,1,$1+$1,$2,$3*
1,1,$1+$1,$4,$5*
1,1,$1+$1,$6,$7*
1,1,$1+$1,$8,$9*
0 Add four rect primitives between the rounded corners*
20,1,$1+$1,$2,$3,$4,$5,0*
20,1,$1+$1,$4,$5,$6,$7,0*
20,1,$1+$1,$6,$7,$8,$9,0*
20,1,$1+$1,$8,$9,$2,$3,0*%
G04 Aperture macros list end*
%ADD10R,0.550000X1.100000*%
%ADD11R,0.300000X1.100000*%
%ADD12O,1.100000X2.000000*%
%ADD13O,1.200000X1.800000*%
%ADD14C,0.700000*%
%ADD15O,0.607000X0.364000*%
%ADD16R,1.000000X1.600000*%
%ADD17R,1.500000X0.900000*%
%ADD18R,0.900000X1.500000*%
%ADD19R,0.900000X0.900000*%
%ADD20R,1.500000X1.000000*%
%ADD21RoundRect,0.102000X-0.395000X-0.465000X0.395000X-0.465000X0.395000X0.465000X-0.395000X0.465000X0*%
%ADD22RoundRect,0.102000X0.395000X0.465000X-0.395000X0.465000X-0.395000X-0.465000X0.395000X-0.465000X0*%
%ADD23R,1.700000X1.700000*%
%ADD24C,1.700000*%
%ADD25R,0.700000X1.600000*%
%ADD26R,1.200000X1.500000*%
%ADD27R,1.200000X2.200000*%
%ADD28R,1.600000X1.500000*%
%ADD29C,1.200000*%
G04 APERTURE END LIST*
D10*
%TO.C,USB1*%
X145300000Y-110240000D03*
X146100000Y-110240000D03*
D11*
X146750000Y-110240000D03*
X147250000Y-110240000D03*
X147750000Y-110240000D03*
X148250000Y-110240000D03*
X148750000Y-110240000D03*
X149250000Y-110240000D03*
X149750000Y-110240000D03*
X150250000Y-110240000D03*
D10*
X150900000Y-110240000D03*
X151700000Y-110240000D03*
D12*
X144180000Y-110790000D03*
X152820000Y-110790000D03*
D13*
X144180000Y-115000000D03*
X152820000Y-115000000D03*
D14*
X145610000Y-111320000D03*
X151390000Y-111320000D03*
%TD*%
D15*
%TO.C,U2*%
X143550000Y-104800000D03*
X143550000Y-105450000D03*
X143550000Y-106100000D03*
X145610000Y-106100000D03*
X145610000Y-105450000D03*
X145610000Y-104800000D03*
D16*
X144580000Y-105450000D03*
%TD*%
D17*
%TO.C,U1*%
X139850000Y-64180000D03*
X139850000Y-65450000D03*
X139850000Y-66720000D03*
X139850000Y-67990000D03*
X139850000Y-69260000D03*
X139850000Y-70530000D03*
X139850000Y-71800000D03*
X139850000Y-73070000D03*
X139850000Y-74340000D03*
X139850000Y-75610000D03*
X139850000Y-76880000D03*
X139850000Y-78150000D03*
X139850000Y-79420000D03*
X139850000Y-80690000D03*
D18*
X141610000Y-81960000D03*
X142880000Y-81960000D03*
X144150000Y-81960000D03*
X145430000Y-81960000D03*
X146700000Y-81960000D03*
X147970000Y-81960000D03*
X149240000Y-81960000D03*
X150510000Y-81960000D03*
X151780000Y-81960000D03*
X153050000Y-81960000D03*
X154320000Y-81960000D03*
X155590000Y-81930000D03*
D17*
X157350000Y-80690000D03*
X157350000Y-79420000D03*
X157350000Y-78150000D03*
X157350000Y-76880000D03*
X157350000Y-75610000D03*
X157350000Y-74340000D03*
X157350000Y-73070000D03*
X157350000Y-71800000D03*
X157350000Y-70530000D03*
X157350000Y-69260000D03*
X157350000Y-67990000D03*
X157350000Y-66720000D03*
X157350000Y-65450000D03*
X157350000Y-64180000D03*
D19*
X148500000Y-73300000D03*
X147100000Y-73300000D03*
X145700000Y-73300000D03*
X145700000Y-70500000D03*
X147100000Y-70500000D03*
X148500000Y-70500000D03*
X148500000Y-71900000D03*
X145700000Y-71900000D03*
X147100000Y-71900000D03*
%TD*%
D20*
%TO.C,SW2*%
X152850000Y-89200000D03*
X157150000Y-89200000D03*
X152850000Y-90800000D03*
X157150000Y-90800000D03*
%TD*%
%TO.C,SW1*%
X140350000Y-89200000D03*
X144650000Y-89200000D03*
X140350000Y-90800000D03*
X144650000Y-90800000D03*
%TD*%
D21*
%TO.C,R4*%
X154305000Y-87025000D03*
X155945000Y-87025000D03*
%TD*%
D22*
%TO.C,R3*%
X143120002Y-86925000D03*
X141479998Y-86925000D03*
%TD*%
D21*
%TO.C,R2*%
X154725000Y-106050000D03*
X156365000Y-106050000D03*
%TD*%
%TO.C,R1*%
X150605000Y-106100000D03*
X152245000Y-106100000D03*
%TD*%
D20*
%TO.C,LED1*%
X155562500Y-100600000D03*
X155562500Y-97300000D03*
X150662500Y-97300000D03*
X150662500Y-100600000D03*
%TD*%
D23*
%TO.C,J2*%
X165000000Y-57420000D03*
D24*
X165000000Y-59960000D03*
X165000000Y-62500000D03*
X165000000Y-65040000D03*
X165000000Y-67580000D03*
X165000000Y-70120000D03*
X165000000Y-72660000D03*
X165000000Y-75200000D03*
X165000000Y-77740000D03*
X165000000Y-80280000D03*
X165000000Y-82820000D03*
X165000000Y-85360000D03*
X165000000Y-87900000D03*
X165000000Y-90440000D03*
X165000000Y-92980000D03*
X165000000Y-95520000D03*
X165000000Y-98060000D03*
X165000000Y-100600000D03*
X165000000Y-103140000D03*
X165000000Y-105680000D03*
%TD*%
D23*
%TO.C,J1*%
X132499999Y-58300000D03*
D24*
X132499999Y-60840001D03*
X132499998Y-63380000D03*
X132500000Y-65920000D03*
X132499999Y-68460000D03*
X132499999Y-71000000D03*
X132500000Y-73540001D03*
X132499998Y-76080002D03*
X132499999Y-78620000D03*
X132499999Y-81160000D03*
X132499999Y-83700000D03*
X132499999Y-86240000D03*
X132499999Y-88780000D03*
X132499999Y-91320000D03*
X132499998Y-93860000D03*
X132499999Y-96400000D03*
X132499999Y-98940000D03*
X132499997Y-101479999D03*
X132499999Y-104020000D03*
X132499999Y-106560000D03*
%TD*%
D25*
%TO.C,Card1*%
X153149998Y-54524997D03*
X152049996Y-54524999D03*
X150949999Y-54525004D03*
X149850001Y-54525003D03*
X148750003Y-54524998D03*
X147650001Y-54524996D03*
X146550003Y-54524999D03*
X145450002Y-54524994D03*
X154249996Y-54525001D03*
D26*
X155450001Y-53524998D03*
D27*
X155450000Y-43925001D03*
X139949999Y-43924998D03*
D28*
X140850000Y-53524998D03*
D29*
X152649998Y-43524997D03*
X144650001Y-43525003D03*
%TD*%
M02*
