%TF.GenerationSoftware,KiCad,Pcbnew,10.0.3*%
%TF.CreationDate,2026-06-28T15:12:38-07:00*%
%TF.ProjectId,Board,426f6172-642e-46b6-9963-61645f706362,rev?*%
%TF.SameCoordinates,Original*%
%TF.FileFunction,Soldermask,Bot*%
%TF.FilePolarity,Negative*%
%FSLAX46Y46*%
G04 Gerber Fmt 4.6, Leading zero omitted, Abs format (unit mm)*
G04 Created by KiCad (PCBNEW 10.0.3) date 2026-06-28 15:12:38*
%MOMM*%
%LPD*%
G01*
G04 APERTURE LIST*
%ADD10O,1.100000X2.000000*%
%ADD11O,1.200000X1.800000*%
%ADD12C,0.700000*%
%ADD13R,1.700000X1.700000*%
%ADD14C,1.700000*%
%ADD15C,1.200000*%
G04 APERTURE END LIST*
D10*
%TO.C,USB1*%
X144180000Y-110790000D03*
X152820000Y-110790000D03*
D11*
X144180000Y-115000000D03*
X152820000Y-115000000D03*
D12*
X145610000Y-111320000D03*
X151390000Y-111320000D03*
%TD*%
D13*
%TO.C,J2*%
X165000000Y-57420000D03*
D14*
X165000000Y-59960000D03*
X165000000Y-62500000D03*
X165000000Y-65040000D03*
X165000000Y-67580000D03*
X165000000Y-70120000D03*
X165000000Y-72660000D03*
X165000000Y-75200000D03*
X165000000Y-77740000D03*
X165000000Y-80280000D03*
X165000000Y-82820000D03*
X165000000Y-85360000D03*
X165000000Y-87900000D03*
X165000000Y-90440000D03*
X165000000Y-92980000D03*
X165000000Y-95520000D03*
X165000000Y-98060000D03*
X165000000Y-100600000D03*
X165000000Y-103140000D03*
X165000000Y-105680000D03*
%TD*%
D13*
%TO.C,J1*%
X132499999Y-58300000D03*
D14*
X132499999Y-60840001D03*
X132499998Y-63380000D03*
X132500000Y-65920000D03*
X132499999Y-68460000D03*
X132499999Y-71000000D03*
X132500000Y-73540001D03*
X132499998Y-76080002D03*
X132499999Y-78620000D03*
X132499999Y-81160000D03*
X132499999Y-83700000D03*
X132499999Y-86240000D03*
X132499999Y-88780000D03*
X132499999Y-91320000D03*
X132499998Y-93860000D03*
X132499999Y-96400000D03*
X132499999Y-98940000D03*
X132499997Y-101479999D03*
X132499999Y-104020000D03*
X132499999Y-106560000D03*
%TD*%
D15*
%TO.C,Card1*%
X152649998Y-43524997D03*
X144650001Y-43525003D03*
%TD*%
M02*
