%TF.GenerationSoftware,KiCad,Pcbnew,10.0.3*%
%TF.CreationDate,2026-06-28T15:12:38-07:00*%
%TF.ProjectId,Board,426f6172-642e-46b6-9963-61645f706362,rev?*%
%TF.SameCoordinates,Original*%
%TF.FileFunction,Paste,Top*%
%TF.FilePolarity,Positive*%
%FSLAX46Y46*%
G04 Gerber Fmt 4.6, Leading zero omitted, Abs format (unit mm)*
G04 Created by KiCad (PCBNEW 10.0.3) date 2026-06-28 15:12:38*
%MOMM*%
%LPD*%
G01*
G04 APERTURE LIST*
%ADD10R,0.550000X1.100000*%
%ADD11R,0.300000X1.100000*%
%ADD12O,0.607000X0.364000*%
%ADD13R,1.000000X1.600000*%
%ADD14R,1.500000X0.900000*%
%ADD15R,0.900000X1.500000*%
%ADD16R,0.900000X0.900000*%
%ADD17R,1.500000X1.000000*%
%ADD18R,0.790000X0.930000*%
%ADD19R,0.700000X1.600000*%
%ADD20R,1.200000X1.500000*%
%ADD21R,1.200000X2.200000*%
%ADD22R,1.600000X1.500000*%
G04 APERTURE END LIST*
D10*
%TO.C,USB1*%
X145300000Y-110240000D03*
X146100000Y-110240000D03*
D11*
X146750000Y-110240000D03*
X147250000Y-110240000D03*
X147750000Y-110240000D03*
X148250000Y-110240000D03*
X148750000Y-110240000D03*
X149250000Y-110240000D03*
X149750000Y-110240000D03*
X150250000Y-110240000D03*
D10*
X150900000Y-110240000D03*
X151700000Y-110240000D03*
%TD*%
D12*
%TO.C,U2*%
X143550000Y-104800000D03*
X143550000Y-105450000D03*
X143550000Y-106100000D03*
X145610000Y-106100000D03*
X145610000Y-105450000D03*
X145610000Y-104800000D03*
D13*
X144580000Y-105450000D03*
%TD*%
D14*
%TO.C,U1*%
X139850000Y-64180000D03*
X139850000Y-65450000D03*
X139850000Y-66720000D03*
X139850000Y-67990000D03*
X139850000Y-69260000D03*
X139850000Y-70530000D03*
X139850000Y-71800000D03*
X139850000Y-73070000D03*
X139850000Y-74340000D03*
X139850000Y-75610000D03*
X139850000Y-76880000D03*
X139850000Y-78150000D03*
X139850000Y-79420000D03*
X139850000Y-80690000D03*
D15*
X141610000Y-81960000D03*
X142880000Y-81960000D03*
X144150000Y-81960000D03*
X145430000Y-81960000D03*
X146700000Y-81960000D03*
X147970000Y-81960000D03*
X149240000Y-81960000D03*
X150510000Y-81960000D03*
X151780000Y-81960000D03*
X153050000Y-81960000D03*
X154320000Y-81960000D03*
X155590000Y-81930000D03*
D14*
X157350000Y-80690000D03*
X157350000Y-79420000D03*
X157350000Y-78150000D03*
X157350000Y-76880000D03*
X157350000Y-75610000D03*
X157350000Y-74340000D03*
X157350000Y-73070000D03*
X157350000Y-71800000D03*
X157350000Y-70530000D03*
X157350000Y-69260000D03*
X157350000Y-67990000D03*
X157350000Y-66720000D03*
X157350000Y-65450000D03*
X157350000Y-64180000D03*
D16*
X148500000Y-73300000D03*
X147100000Y-73300000D03*
X145700000Y-73300000D03*
X145700000Y-70500000D03*
X147100000Y-70500000D03*
X148500000Y-70500000D03*
X148500000Y-71900000D03*
X145700000Y-71900000D03*
X147100000Y-71900000D03*
%TD*%
D17*
%TO.C,SW2*%
X152850000Y-89200000D03*
X157150000Y-89200000D03*
X152850000Y-90800000D03*
X157150000Y-90800000D03*
%TD*%
%TO.C,SW1*%
X140350000Y-89200000D03*
X144650000Y-89200000D03*
X140350000Y-90800000D03*
X144650000Y-90800000D03*
%TD*%
D18*
%TO.C,R4*%
X154305000Y-87025000D03*
X155945000Y-87025000D03*
%TD*%
%TO.C,R3*%
X143120002Y-86925000D03*
X141479998Y-86925000D03*
%TD*%
%TO.C,R2*%
X154725000Y-106050000D03*
X156365000Y-106050000D03*
%TD*%
%TO.C,R1*%
X150605000Y-106100000D03*
X152245000Y-106100000D03*
%TD*%
D17*
%TO.C,LED1*%
X155562500Y-100600000D03*
X155562500Y-97300000D03*
X150662500Y-97300000D03*
X150662500Y-100600000D03*
%TD*%
D19*
%TO.C,Card1*%
X153149998Y-54524997D03*
X152049996Y-54524999D03*
X150949999Y-54525004D03*
X149850001Y-54525003D03*
X148750003Y-54524998D03*
X147650001Y-54524996D03*
X146550003Y-54524999D03*
X145450002Y-54524994D03*
X154249996Y-54525001D03*
D20*
X155450001Y-53524998D03*
D21*
X155450000Y-43925001D03*
X139949999Y-43924998D03*
D22*
X140850000Y-53524998D03*
%TD*%
M02*
