M48
; DRILL file KiCad 10.0.3 date 2026-06-28T15:12:36
; FORMAT={-:-/ absolute / metric / decimal}
; #@! TF.CreationDate,2026-06-28T15:12:36-07:00
; #@! TF.GenerationSoftware,Kicad,Pcbnew,10.0.3
; #@! TF.FileFunction,Plated,1,2,PTH
FMAT,2
METRIC
; #@! TA.AperFunction,Plated,PTH,ViaDrill
T1C0.300
; #@! TA.AperFunction,Plated,PTH,ComponentDrill
T2C0.600
; #@! TA.AperFunction,Plated,PTH,ComponentDrill
T3C0.700
; #@! TA.AperFunction,Plated,PTH,ComponentDrill
T4C1.000
; #@! TA.AperFunction,Plated,PTH,ComponentDrill
T5C1.200
%
G90
G05
T1
X135.068Y-77.704
X136.024Y-81.024
X136.25Y-80.1
X136.825Y-80.75
X136.95Y-78.0
X137.25Y-79.25
X137.675Y-80.75
X137.75Y-78.0
X138.75Y-74.75
X141.25Y-68.0
X141.5Y-80.25
X143.0Y-80.25
X144.25Y-80.25
X144.75Y-83.5
X145.5Y-80.25
X146.5Y-80.25
X147.2Y-57.5
X148.0Y-80.25
X148.075Y-108.5
X148.7Y-97.9
X148.75Y-52.5
X148.925Y-108.5
X149.25Y-79.0
X149.25Y-83.5
X150.1Y-57.9
X150.75Y-83.5
X151.0Y-51.75
X151.75Y-57.5
X152.0Y-83.75
X152.35Y-60.25
X153.4Y-99.9
X154.0Y-56.25
X154.299Y-85.201
X155.0Y-94.5
X155.75Y-67.25
X155.75Y-80.68
T3
X145.61Y-111.32
X151.39Y-111.32
T4
X132.5Y-101.48
X132.5Y-63.38
X132.5Y-76.08
X132.5Y-93.86
X132.5Y-58.3
X132.5Y-60.84
X132.5Y-68.46
X132.5Y-71.0
X132.5Y-78.62
X132.5Y-81.16
X132.5Y-83.7
X132.5Y-86.24
X132.5Y-88.78
X132.5Y-91.32
X132.5Y-96.4
X132.5Y-98.94
X132.5Y-104.02
X132.5Y-106.56
X132.5Y-65.92
X132.5Y-73.54
X165.0Y-57.42
X165.0Y-59.96
X165.0Y-62.5
X165.0Y-65.04
X165.0Y-67.58
X165.0Y-70.12
X165.0Y-72.66
X165.0Y-75.2
X165.0Y-77.74
X165.0Y-80.28
X165.0Y-82.82
X165.0Y-85.36
X165.0Y-87.9
X165.0Y-90.44
X165.0Y-92.98
X165.0Y-95.52
X165.0Y-98.06
X165.0Y-100.6
X165.0Y-103.14
X165.0Y-105.68
T5
X144.65Y-43.525
X152.65Y-43.525
T2
G00X144.18Y-110.34
M15
G01X144.18Y-111.24
M16
G05
G00X144.18Y-114.7
M15
G01X144.18Y-115.3
M16
G05
G00X152.82Y-110.34
M15
G01X152.82Y-111.24
M16
G05
G00X152.82Y-114.7
M15
G01X152.82Y-115.3
M16
G05
M30
