%TF.GenerationSoftware,KiCad,Pcbnew,10.0.3*%
%TF.CreationDate,2026-06-28T15:12:38-07:00*%
%TF.ProjectId,Board,426f6172-642e-46b6-9963-61645f706362,rev?*%
%TF.SameCoordinates,Original*%
%TF.FileFunction,Copper,L1,Top*%
%TF.FilePolarity,Positive*%
%FSLAX46Y46*%
G04 Gerber Fmt 4.6, Leading zero omitted, Abs format (unit mm)*
G04 Created by KiCad (PCBNEW 10.0.3) date 2026-06-28 15:12:38*
%MOMM*%
%LPD*%
G01*
G04 APERTURE LIST*
%TA.AperFunction,SMDPad,CuDef*%
%ADD10R,0.550000X1.100000*%
%TD*%
%TA.AperFunction,SMDPad,CuDef*%
%ADD11R,0.300000X1.100000*%
%TD*%
%TA.AperFunction,ComponentPad*%
%ADD12O,1.100000X2.000000*%
%TD*%
%TA.AperFunction,ComponentPad*%
%ADD13O,1.200000X1.800000*%
%TD*%
%TA.AperFunction,ComponentPad*%
%ADD14C,0.700000*%
%TD*%
%TA.AperFunction,SMDPad,CuDef*%
%ADD15O,0.607000X0.364000*%
%TD*%
%TA.AperFunction,SMDPad,CuDef*%
%ADD16R,1.000000X1.600000*%
%TD*%
%TA.AperFunction,SMDPad,CuDef*%
%ADD17R,1.500000X0.900000*%
%TD*%
%TA.AperFunction,SMDPad,CuDef*%
%ADD18R,0.900000X1.500000*%
%TD*%
%TA.AperFunction,SMDPad,CuDef*%
%ADD19R,0.900000X0.900000*%
%TD*%
%TA.AperFunction,SMDPad,CuDef*%
%ADD20R,1.500000X1.000000*%
%TD*%
%TA.AperFunction,SMDPad,CuDef*%
%ADD21R,0.790000X0.930000*%
%TD*%
%TA.AperFunction,ComponentPad*%
%ADD22R,1.700000X1.700000*%
%TD*%
%TA.AperFunction,ComponentPad*%
%ADD23C,1.700000*%
%TD*%
%TA.AperFunction,SMDPad,CuDef*%
%ADD24R,0.700000X1.600000*%
%TD*%
%TA.AperFunction,SMDPad,CuDef*%
%ADD25R,1.200000X1.500000*%
%TD*%
%TA.AperFunction,SMDPad,CuDef*%
%ADD26R,1.200000X2.200000*%
%TD*%
%TA.AperFunction,SMDPad,CuDef*%
%ADD27R,1.600000X1.500000*%
%TD*%
%TA.AperFunction,ComponentPad*%
%ADD28C,1.200000*%
%TD*%
%TA.AperFunction,ViaPad*%
%ADD29C,0.600000*%
%TD*%
%TA.AperFunction,Conductor*%
%ADD30C,0.200000*%
%TD*%
G04 APERTURE END LIST*
D10*
%TO.P,USB1,A1B12,GND_A1B12*%
%TO.N,GND*%
X145300000Y-110240000D03*
%TO.P,USB1,A4B9,VBUS_A4B9*%
%TO.N,VBUS*%
X146100000Y-110240000D03*
D11*
%TO.P,USB1,B8,SBU2_B8*%
%TO.N,unconnected-(USB1-SBU2-PadB8)*%
X146750000Y-110240000D03*
%TO.P,USB1,A5,CC1_A5*%
%TO.N,CC1*%
X147250000Y-110240000D03*
%TO.P,USB1,B7,Dn2_B7*%
%TO.N,unconnected-(USB1-Dn2-PadB7)*%
X147750000Y-110240000D03*
%TO.P,USB1,A6,Dp1_A6*%
%TO.N,D+*%
X148250000Y-110240000D03*
%TO.P,USB1,A7,Dn1_A7*%
%TO.N,D-*%
X148750000Y-110240000D03*
%TO.P,USB1,B6,Dp2_B6*%
%TO.N,unconnected-(USB1-Dp2-PadB6)*%
X149250000Y-110240000D03*
%TO.P,USB1,A8,SBU1_A8*%
%TO.N,unconnected-(USB1-SBU1-PadA8)*%
X149750000Y-110240000D03*
%TO.P,USB1,B5,CC2_B5*%
%TO.N,CC2*%
X150250000Y-110240000D03*
D10*
%TO.P,USB1,B4A9,VBUS_B4A9*%
%TO.N,VBUS*%
X150900000Y-110240000D03*
%TO.P,USB1,B1A12,GND_B1A12*%
%TO.N,GND*%
X151700000Y-110240000D03*
D12*
%TO.P,USB1,13,EH_13*%
%TO.N,unconnected-(USB1-EH-Pad13)*%
X144180000Y-110790000D03*
%TO.P,USB1,14,EH_14*%
%TO.N,unconnected-(USB1-EH-Pad14)*%
X152820000Y-110790000D03*
D13*
%TO.P,USB1,13,EH_13*%
%TO.N,unconnected-(USB1-EH-Pad13)*%
X144180000Y-115000000D03*
%TO.P,USB1,14,EH_14*%
%TO.N,unconnected-(USB1-EH-Pad14)*%
X152820000Y-115000000D03*
D14*
%TO.P,USB1,*%
%TO.N,*%
X145610000Y-111320000D03*
X151390000Y-111320000D03*
%TD*%
D15*
%TO.P,U2,1,OUT_1*%
%TO.N,3V3*%
X143550000Y-104800000D03*
%TO.P,U2,2,FB/NC_2*%
%TO.N,unconnected-(U2-FB{slash}NC-Pad2)*%
X143550000Y-105450000D03*
%TO.P,U2,3,GND_3*%
%TO.N,GND*%
X143550000Y-106100000D03*
%TO.P,U2,4,EN_4*%
%TO.N,VBUS*%
X145610000Y-106100000D03*
%TO.P,U2,5,PG_5*%
%TO.N,unconnected-(U2-PG-Pad5)*%
X145610000Y-105450000D03*
%TO.P,U2,6,IN_6*%
%TO.N,VBUS*%
X145610000Y-104800000D03*
D16*
%TO.P,U2,7,EP_7*%
%TO.N,GND*%
X144580000Y-105450000D03*
%TD*%
D17*
%TO.P,U1,1,GND_1*%
%TO.N,GND*%
X139850000Y-64180000D03*
%TO.P,U1,2,3V3_2*%
%TO.N,3V3*%
X139850000Y-65450000D03*
%TO.P,U1,3,EN_3*%
%TO.N,RESET*%
X139850000Y-66720000D03*
%TO.P,U1,4,IO4_4*%
%TO.N,IO4*%
X139850000Y-67990000D03*
%TO.P,U1,5,IO5_5*%
%TO.N,IO5*%
X139850000Y-69260000D03*
%TO.P,U1,6,IO6_6*%
%TO.N,IO6*%
X139850000Y-70530000D03*
%TO.P,U1,7,IO7_7*%
%TO.N,IO7*%
X139850000Y-71800000D03*
%TO.P,U1,8,IO15_8*%
%TO.N,IO15*%
X139850000Y-73070000D03*
%TO.P,U1,9,IO16_9*%
%TO.N,IO16*%
X139850000Y-74340000D03*
%TO.P,U1,10,IO17_10*%
%TO.N,IO17*%
X139850000Y-75610000D03*
%TO.P,U1,11,IO18_11*%
%TO.N,IO18*%
X139850000Y-76880000D03*
%TO.P,U1,12,IO8_12*%
%TO.N,IO8*%
X139850000Y-78150000D03*
%TO.P,U1,13,IO19_13*%
%TO.N,D-*%
X139850000Y-79420000D03*
%TO.P,U1,14,IO20_14*%
%TO.N,D+*%
X139850000Y-80690000D03*
D18*
%TO.P,U1,15,IO3_15*%
%TO.N,IO3*%
X141610000Y-81960000D03*
%TO.P,U1,16,IO46_16*%
%TO.N,IO46*%
X142880000Y-81960000D03*
%TO.P,U1,17,IO9_17*%
%TO.N,IO9*%
X144150000Y-81960000D03*
%TO.P,U1,18,IO10_18*%
%TO.N,CS*%
X145430000Y-81960000D03*
%TO.P,U1,19,IO11_19*%
%TO.N,MOSI*%
X146700000Y-81960000D03*
%TO.P,U1,20,IO12_20*%
%TO.N,CLK*%
X147970000Y-81960000D03*
%TO.P,U1,21,IO13_21*%
%TO.N,MISO*%
X149240000Y-81960000D03*
%TO.P,U1,22,IO14_22*%
%TO.N,CD*%
X150510000Y-81960000D03*
%TO.P,U1,23,IO21_23*%
%TO.N,IO21*%
X151780000Y-81960000D03*
%TO.P,U1,24,IO47_24*%
%TO.N,IO47*%
X153050000Y-81960000D03*
%TO.P,U1,25,IO48_25*%
%TO.N,IO48*%
X154320000Y-81960000D03*
%TO.P,U1,26,IO45_26*%
%TO.N,IO45*%
X155590000Y-81930000D03*
D17*
%TO.P,U1,27,IO0_27*%
%TO.N,BOOT*%
X157350000Y-80690000D03*
%TO.P,U1,28,IO35_28*%
%TO.N,IO35*%
X157350000Y-79420000D03*
%TO.P,U1,29,IO36_29*%
%TO.N,IO36*%
X157350000Y-78150000D03*
%TO.P,U1,30,IO37_30*%
%TO.N,IO37*%
X157350000Y-76880000D03*
%TO.P,U1,31,IO38_31*%
%TO.N,IO38*%
X157350000Y-75610000D03*
%TO.P,U1,32,IO39_32*%
%TO.N,IO39*%
X157350000Y-74340000D03*
%TO.P,U1,33,IO40_33*%
%TO.N,IO40*%
X157350000Y-73070000D03*
%TO.P,U1,34,IO41_34*%
%TO.N,IO41*%
X157350000Y-71800000D03*
%TO.P,U1,35,IO42_35*%
%TO.N,IO42*%
X157350000Y-70530000D03*
%TO.P,U1,36,RXD0_36*%
%TO.N,RXD0*%
X157350000Y-69260000D03*
%TO.P,U1,37,TXD0_37*%
%TO.N,TXD0*%
X157350000Y-67990000D03*
%TO.P,U1,38,IO2_38*%
%TO.N,DIN*%
X157350000Y-66720000D03*
%TO.P,U1,39,IO1_39*%
%TO.N,IO1*%
X157350000Y-65450000D03*
%TO.P,U1,40,GND_40*%
%TO.N,GND*%
X157350000Y-64180000D03*
D19*
%TO.P,U1,41,GND_41*%
X148500000Y-73300000D03*
X147100000Y-73300000D03*
X145700000Y-73300000D03*
X145700000Y-70500000D03*
X147100000Y-70500000D03*
X148500000Y-70500000D03*
X148500000Y-71900000D03*
X145700000Y-71900000D03*
X147100000Y-71900000D03*
%TD*%
D20*
%TO.P,SW2,1,1_1*%
%TO.N,BOOT*%
X152850000Y-89200000D03*
%TO.P,SW2,2,2_2*%
%TO.N,unconnected-(SW2-Pad2)*%
X157150000Y-89200000D03*
%TO.P,SW2,3,3_3*%
%TO.N,unconnected-(SW2-Pad3)*%
X152850000Y-90800000D03*
%TO.P,SW2,4,4_4*%
%TO.N,GND*%
X157150000Y-90800000D03*
%TD*%
%TO.P,SW1,1,1_1*%
%TO.N,RESET*%
X140350000Y-89200000D03*
%TO.P,SW1,2,2_2*%
%TO.N,unconnected-(SW1-Pad2)*%
X144650000Y-89200000D03*
%TO.P,SW1,3,3_3*%
%TO.N,unconnected-(SW1-Pad3)*%
X140350000Y-90800000D03*
%TO.P,SW1,4,4_4*%
%TO.N,GND*%
X144650000Y-90800000D03*
%TD*%
D21*
%TO.P,R4,1*%
%TO.N,BOOT*%
X154305000Y-87025000D03*
%TO.P,R4,2*%
%TO.N,3V3*%
X155945000Y-87025000D03*
%TD*%
%TO.P,R3,1*%
%TO.N,3V3*%
X143120002Y-86925000D03*
%TO.P,R3,2*%
%TO.N,RESET*%
X141479998Y-86925000D03*
%TD*%
%TO.P,R2,1*%
%TO.N,CC2*%
X154725000Y-106050000D03*
%TO.P,R2,2*%
%TO.N,GND*%
X156365000Y-106050000D03*
%TD*%
%TO.P,R1,1*%
%TO.N,CC1*%
X150605000Y-106100000D03*
%TO.P,R1,2*%
%TO.N,GND*%
X152245000Y-106100000D03*
%TD*%
D20*
%TO.P,LED1,3,VSS_3*%
%TO.N,GND*%
X155562500Y-100600000D03*
%TO.P,LED1,4,DIN_4*%
%TO.N,DIN*%
X155562500Y-97300000D03*
%TO.P,LED1,1,VDD_1*%
%TO.N,3V3*%
X150662500Y-97300000D03*
%TO.P,LED1,2,DOUT_2*%
%TO.N,unconnected-(LED1-DOUT-Pad2)*%
X150662500Y-100600000D03*
%TD*%
D22*
%TO.P,J2,1*%
%TO.N,IO1*%
X165000000Y-57420000D03*
D23*
%TO.P,J2,2*%
%TO.N,DIN*%
X165000000Y-59960000D03*
%TO.P,J2,3*%
%TO.N,TXD0*%
X165000000Y-62500000D03*
%TO.P,J2,4*%
%TO.N,RXD0*%
X165000000Y-65040000D03*
%TO.P,J2,5*%
%TO.N,IO42*%
X165000000Y-67580000D03*
%TO.P,J2,6*%
%TO.N,IO41*%
X165000000Y-70120000D03*
%TO.P,J2,7*%
%TO.N,IO40*%
X165000000Y-72660000D03*
%TO.P,J2,8*%
%TO.N,IO39*%
X165000000Y-75200000D03*
%TO.P,J2,9*%
%TO.N,IO38*%
X165000000Y-77740000D03*
%TO.P,J2,10*%
%TO.N,IO37*%
X165000000Y-80280000D03*
%TO.P,J2,11*%
%TO.N,IO36*%
X165000000Y-82820000D03*
%TO.P,J2,12*%
%TO.N,IO35*%
X165000000Y-85360000D03*
%TO.P,J2,13*%
%TO.N,IO45*%
X165000000Y-87900000D03*
%TO.P,J2,14*%
%TO.N,IO48*%
X165000000Y-90440000D03*
%TO.P,J2,15*%
%TO.N,IO47*%
X165000000Y-92980000D03*
%TO.P,J2,16*%
%TO.N,IO21*%
X165000000Y-95520000D03*
%TO.P,J2,17*%
%TO.N,CD*%
X165000000Y-98060000D03*
%TO.P,J2,18*%
%TO.N,MISO*%
X165000000Y-100600000D03*
%TO.P,J2,19*%
%TO.N,GND*%
X165000000Y-103140000D03*
%TO.P,J2,20*%
%TO.N,3V3*%
X165000000Y-105680000D03*
%TD*%
D22*
%TO.P,J1,1*%
%TO.N,CLK*%
X132499999Y-58300000D03*
D23*
%TO.P,J1,2*%
%TO.N,MOSI*%
X132499999Y-60840001D03*
%TO.P,J1,3*%
%TO.N,CS*%
X132499998Y-63380000D03*
%TO.P,J1,4*%
%TO.N,IO9*%
X132500000Y-65920000D03*
%TO.P,J1,5*%
%TO.N,IO46*%
X132499999Y-68460000D03*
%TO.P,J1,6*%
%TO.N,IO3*%
X132499999Y-71000000D03*
%TO.P,J1,7*%
%TO.N,D+*%
X132500000Y-73540001D03*
%TO.P,J1,8*%
%TO.N,D-*%
X132499998Y-76080002D03*
%TO.P,J1,9*%
%TO.N,IO8*%
X132499999Y-78620000D03*
%TO.P,J1,10*%
%TO.N,IO18*%
X132499999Y-81160000D03*
%TO.P,J1,11*%
%TO.N,IO17*%
X132499999Y-83700000D03*
%TO.P,J1,12*%
%TO.N,IO16*%
X132499999Y-86240000D03*
%TO.P,J1,13*%
%TO.N,IO15*%
X132499999Y-88780000D03*
%TO.P,J1,14*%
%TO.N,IO7*%
X132499999Y-91320000D03*
%TO.P,J1,15*%
%TO.N,IO6*%
X132499998Y-93860000D03*
%TO.P,J1,16*%
%TO.N,IO5*%
X132499999Y-96400000D03*
%TO.P,J1,17*%
%TO.N,IO4*%
X132499999Y-98940000D03*
%TO.P,J1,18*%
%TO.N,VBUS*%
X132499997Y-101479999D03*
%TO.P,J1,19*%
%TO.N,3V3*%
X132499999Y-104020000D03*
%TO.P,J1,20*%
%TO.N,GND*%
X132499999Y-106560000D03*
%TD*%
D24*
%TO.P,Card1,8,DAT1_8*%
%TO.N,unconnected-(Card1-DAT1-Pad8)*%
X153149998Y-54524997D03*
%TO.P,Card1,7,DAT0_7*%
%TO.N,MISO*%
X152049996Y-54524999D03*
%TO.P,Card1,6,VSS_6*%
%TO.N,GND*%
X150949999Y-54525004D03*
%TO.P,Card1,5,CLX_5*%
%TO.N,CLK*%
X149850001Y-54525003D03*
%TO.P,Card1,4,VDD_4*%
%TO.N,3V3*%
X148750003Y-54524998D03*
%TO.P,Card1,3,CMD_3*%
%TO.N,MOSI*%
X147650001Y-54524996D03*
%TO.P,Card1,2,CD/DAT3_2*%
%TO.N,CS*%
X146550003Y-54524999D03*
%TO.P,Card1,1,DAT2_1*%
%TO.N,unconnected-(Card1-DAT2-Pad1)*%
X145450002Y-54524994D03*
%TO.P,Card1,CD,CD_CD*%
%TO.N,CD*%
X154249996Y-54525001D03*
D25*
%TO.P,Card1,10,10_10*%
%TO.N,unconnected-(Card1-Pad10)*%
X155450001Y-53524998D03*
D26*
%TO.P,Card1,11,11_11*%
%TO.N,unconnected-(Card1-Pad11)*%
X155450000Y-43925001D03*
%TO.P,Card1,12,12_12*%
%TO.N,unconnected-(Card1-Pad12)*%
X139949999Y-43924998D03*
D27*
%TO.P,Card1,13,13_13*%
%TO.N,unconnected-(Card1-Pad13)*%
X140850000Y-53524998D03*
D28*
%TO.P,Card1,*%
%TO.N,*%
X152649998Y-43524997D03*
X144650001Y-43525003D03*
%TD*%
D29*
%TO.N,RESET*%
X141250000Y-68000000D03*
X144750000Y-83500000D03*
%TO.N,DIN*%
X155750000Y-67250000D03*
X155000000Y-94500000D03*
%TO.N,CD*%
X154000000Y-56250000D03*
X152350000Y-60250000D03*
%TO.N,MISO*%
X151750000Y-57500000D03*
X149250000Y-79000000D03*
%TO.N,BOOT*%
X155750000Y-80679998D03*
X154299265Y-85200735D03*
%TO.N,MISO*%
X149250000Y-83500000D03*
%TO.N,CD*%
X150750000Y-83500000D03*
%TO.N,IO21*%
X152000000Y-83750000D03*
%TO.N,CLK*%
X148000000Y-80250000D03*
%TO.N,MOSI*%
X146500000Y-80250000D03*
%TO.N,CS*%
X145500000Y-80250000D03*
%TO.N,IO9*%
X144250000Y-80250000D03*
%TO.N,IO46*%
X143000000Y-80250000D03*
%TO.N,IO3*%
X141500000Y-80250000D03*
%TO.N,IO15*%
X135067914Y-77704478D03*
%TO.N,IO16*%
X138750000Y-74750000D03*
X136024264Y-81024264D03*
%TO.N,IO17*%
X136949997Y-78000000D03*
X136250000Y-80100000D03*
%TO.N,IO18*%
X137250000Y-79250000D03*
X137750000Y-78000000D03*
%TO.N,D-*%
X137675000Y-80750000D03*
%TO.N,D+*%
X136825000Y-80750000D03*
X148075000Y-108500000D03*
%TO.N,D-*%
X148925000Y-108500000D03*
%TO.N,3V3*%
X148750000Y-52500000D03*
%TO.N,GND*%
X151000000Y-51750000D03*
X153400000Y-99900000D03*
X148700000Y-97900000D03*
X150100000Y-57900000D03*
X147200000Y-57500000D03*
%TD*%
%TO.N,GND*%
D30*
X152245000Y-106100000D02*
X150463000Y-104318000D01*
X150463000Y-104318000D02*
X145288849Y-104318000D01*
X145288849Y-104318000D02*
X144580000Y-105026849D01*
X144580000Y-105026849D02*
X144580000Y-105450000D01*
%TO.N,RESET*%
X141479998Y-86925000D02*
X144750000Y-83654998D01*
X144750000Y-83654998D02*
X144750000Y-83500000D01*
X141250000Y-68000000D02*
X141250000Y-67170000D01*
X141250000Y-67170000D02*
X140800000Y-66720000D01*
X140800000Y-66720000D02*
X139850000Y-66720000D01*
%TO.N,DIN*%
X155562500Y-97300000D02*
X155562500Y-95062500D01*
X155562500Y-95062500D02*
X155000000Y-94500000D01*
X155750000Y-67250000D02*
X156280000Y-66720000D01*
X156280000Y-66720000D02*
X157350000Y-66720000D01*
%TO.N,GND*%
X145700000Y-70500000D02*
X145700000Y-62300000D01*
X145700000Y-62300000D02*
X150100000Y-57900000D01*
%TO.N,CD*%
X150510000Y-81960000D02*
X150510000Y-62090000D01*
X150510000Y-62090000D02*
X152350000Y-60250000D01*
X154000000Y-56250000D02*
X154000000Y-54774997D01*
X154000000Y-54774997D02*
X154249996Y-54525001D01*
%TO.N,MISO*%
X149240000Y-79010000D02*
X149240000Y-81960000D01*
X149250000Y-79000000D02*
X149240000Y-79010000D01*
X152049996Y-54524999D02*
X152049996Y-57200004D01*
X152049996Y-57200004D02*
X151750000Y-57500000D01*
%TO.N,CLK*%
X149850001Y-54525003D02*
X149850001Y-52751472D01*
X149850001Y-52751472D02*
X148848529Y-51750000D01*
X148848529Y-51750000D02*
X139049999Y-51750000D01*
X139049999Y-51750000D02*
X132499999Y-58300000D01*
%TO.N,3V3*%
X148750000Y-53749994D02*
X148750003Y-53749997D01*
X148750000Y-52500000D02*
X148750000Y-53749994D01*
X148750003Y-53749997D02*
X148750003Y-54524998D01*
%TO.N,MOSI*%
X147650001Y-54524996D02*
X147650001Y-53524996D01*
X147650001Y-53524996D02*
X147549999Y-53424994D01*
X147549999Y-53424994D02*
X143100004Y-53424994D01*
X143100004Y-53424994D02*
X135684997Y-60840001D01*
X135684997Y-60840001D02*
X132499999Y-60840001D01*
%TO.N,CS*%
X146550003Y-54524999D02*
X146550003Y-55174993D01*
X138344996Y-63380000D02*
X132499998Y-63380000D01*
X146550003Y-55174993D02*
X138344996Y-63380000D01*
%TO.N,BOOT*%
X154305000Y-85206470D02*
X154299265Y-85200735D01*
X157339998Y-80679998D02*
X157350000Y-80690000D01*
X154305000Y-87025000D02*
X154305000Y-85206470D01*
X155750000Y-80679998D02*
X157339998Y-80679998D01*
X152850000Y-89200000D02*
X152850000Y-88480000D01*
X152850000Y-88480000D02*
X154305000Y-87025000D01*
%TO.N,MISO*%
X149250000Y-83500000D02*
X149250000Y-81970000D01*
X149250000Y-81970000D02*
X149240000Y-81960000D01*
%TO.N,CD*%
X150750000Y-83500000D02*
X150750000Y-82200000D01*
X150750000Y-82200000D02*
X150510000Y-81960000D01*
%TO.N,IO21*%
X152000000Y-83750000D02*
X152000000Y-82180000D01*
X152000000Y-82180000D02*
X151780000Y-81960000D01*
%TO.N,IO47*%
X165000000Y-92980000D02*
X163360000Y-92980000D01*
X163360000Y-92980000D02*
X153050000Y-82670000D01*
X153050000Y-82670000D02*
X153050000Y-81960000D01*
%TO.N,IO48*%
X165000000Y-90440000D02*
X161850000Y-90440000D01*
X161850000Y-90440000D02*
X154320000Y-82910000D01*
X154320000Y-82910000D02*
X154320000Y-81960000D01*
%TO.N,IO45*%
X165000000Y-87900000D02*
X159030000Y-81930000D01*
X159030000Y-81930000D02*
X155590000Y-81930000D01*
%TO.N,IO35*%
X165000000Y-85360000D02*
X159060000Y-79420000D01*
X159060000Y-79420000D02*
X157350000Y-79420000D01*
%TO.N,IO36*%
X165000000Y-82820000D02*
X160330000Y-78150000D01*
X160330000Y-78150000D02*
X157350000Y-78150000D01*
%TO.N,IO37*%
X165000000Y-80280000D02*
X161600000Y-76880000D01*
X161600000Y-76880000D02*
X157350000Y-76880000D01*
%TO.N,IO38*%
X165000000Y-77740000D02*
X162870000Y-75610000D01*
X162870000Y-75610000D02*
X157350000Y-75610000D01*
%TO.N,IO39*%
X165000000Y-75200000D02*
X164140000Y-74340000D01*
X164140000Y-74340000D02*
X157350000Y-74340000D01*
%TO.N,IO40*%
X165000000Y-72660000D02*
X157760000Y-72660000D01*
X157760000Y-72660000D02*
X157350000Y-73070000D01*
%TO.N,IO41*%
X165000000Y-70120000D02*
X163320000Y-71800000D01*
X163320000Y-71800000D02*
X157350000Y-71800000D01*
%TO.N,IO42*%
X165000000Y-67580000D02*
X162050000Y-70530000D01*
X162050000Y-70530000D02*
X157350000Y-70530000D01*
%TO.N,RXD0*%
X165000000Y-65040000D02*
X160780000Y-69260000D01*
X160780000Y-69260000D02*
X157350000Y-69260000D01*
%TO.N,TXD0*%
X165000000Y-62500000D02*
X159510000Y-67990000D01*
X159510000Y-67990000D02*
X157350000Y-67990000D01*
%TO.N,DIN*%
X165000000Y-59960000D02*
X158240000Y-66720000D01*
X158240000Y-66720000D02*
X157350000Y-66720000D01*
%TO.N,IO1*%
X165000000Y-57420000D02*
X163850000Y-58570000D01*
X163850000Y-58570000D02*
X163850000Y-59650000D01*
X163850000Y-59650000D02*
X158050000Y-65450000D01*
X158050000Y-65450000D02*
X157350000Y-65450000D01*
%TO.N,CLK*%
X148000000Y-80250000D02*
X148000000Y-81930000D01*
X148000000Y-81930000D02*
X147970000Y-81960000D01*
%TO.N,MOSI*%
X146500000Y-80250000D02*
X146500000Y-81760000D01*
X146500000Y-81760000D02*
X146700000Y-81960000D01*
%TO.N,CS*%
X145500000Y-80250000D02*
X145500000Y-81890000D01*
X145500000Y-81890000D02*
X145430000Y-81960000D01*
%TO.N,IO9*%
X144250000Y-80250000D02*
X144250000Y-81860000D01*
X144250000Y-81860000D02*
X144150000Y-81960000D01*
%TO.N,IO46*%
X143000000Y-80250000D02*
X143000000Y-81840000D01*
X143000000Y-81840000D02*
X142880000Y-81960000D01*
%TO.N,IO3*%
X141500000Y-80250000D02*
X141500000Y-81850000D01*
X141500000Y-81850000D02*
X141610000Y-81960000D01*
%TO.N,IO4*%
X132499999Y-98940000D02*
X130000000Y-96440001D01*
X130000000Y-96440001D02*
X130000000Y-71873653D01*
X130000000Y-71873653D02*
X132263653Y-69610000D01*
X132263653Y-69610000D02*
X137280000Y-69610000D01*
X137280000Y-69610000D02*
X138900000Y-67990000D01*
X138900000Y-67990000D02*
X139850000Y-67990000D01*
%TO.N,IO5*%
X132499999Y-96400000D02*
X130549999Y-94450000D01*
X130549999Y-94450000D02*
X130549999Y-73863656D01*
X130549999Y-73863656D02*
X132263655Y-72150000D01*
X132263655Y-72150000D02*
X136010000Y-72150000D01*
X136010000Y-72150000D02*
X138900000Y-69260000D01*
X138900000Y-69260000D02*
X139850000Y-69260000D01*
%TO.N,IO6*%
X132499998Y-93860000D02*
X130949999Y-92310001D01*
X130949999Y-92310001D02*
X130949999Y-76003655D01*
X130949999Y-76003655D02*
X132263653Y-74690001D01*
X132263653Y-74690001D02*
X134739999Y-74690001D01*
X134739999Y-74690001D02*
X138900000Y-70530000D01*
X138900000Y-70530000D02*
X139850000Y-70530000D01*
%TO.N,IO7*%
X132499999Y-91320000D02*
X131349999Y-90170000D01*
X131349999Y-90170000D02*
X131349999Y-78143654D01*
X133870000Y-77250000D02*
X139320000Y-71800000D01*
X131349999Y-78143654D02*
X132243653Y-77250000D01*
X132243653Y-77250000D02*
X133870000Y-77250000D01*
X139320000Y-71800000D02*
X139850000Y-71800000D01*
%TO.N,IO15*%
X138000000Y-75500000D02*
X135795522Y-77704478D01*
X139850000Y-73070000D02*
X138900000Y-73070000D01*
X135795522Y-77704478D02*
X135067914Y-77704478D01*
X138900000Y-73070000D02*
X138000000Y-73970000D01*
X138000000Y-73970000D02*
X138000000Y-75500000D01*
%TO.N,IO16*%
X132499999Y-86240000D02*
X136024264Y-82715735D01*
X136024264Y-82715735D02*
X136024264Y-81024264D01*
X138750000Y-74750000D02*
X139440000Y-74750000D01*
X139440000Y-74750000D02*
X139850000Y-74340000D01*
%TO.N,IO17*%
X136250000Y-80100000D02*
X136099999Y-80100000D01*
X139850000Y-75610000D02*
X139140000Y-75610000D01*
X139140000Y-75610000D02*
X136949997Y-77800003D01*
X136099999Y-80100000D02*
X132499999Y-83700000D01*
X136949997Y-77800003D02*
X136949997Y-78000000D01*
%TO.N,IO18*%
X139850000Y-76880000D02*
X138870000Y-76880000D01*
X138870000Y-76880000D02*
X137750000Y-78000000D01*
X137250000Y-79250000D02*
X137000000Y-79500000D01*
X134159999Y-79500000D02*
X132499999Y-81160000D01*
X137000000Y-79500000D02*
X134159999Y-79500000D01*
%TO.N,IO8*%
X132499999Y-78620000D02*
X139380000Y-78620000D01*
X139380000Y-78620000D02*
X139850000Y-78150000D01*
%TO.N,D+*%
X136825000Y-80750000D02*
X137275000Y-81200000D01*
X137275000Y-81200000D02*
X137276471Y-81200000D01*
X137276471Y-81200000D02*
X137426471Y-81350000D01*
X137426471Y-81350000D02*
X137923529Y-81350000D01*
X137923529Y-81350000D02*
X138073529Y-81200000D01*
X139216397Y-80690000D02*
X139850000Y-80690000D01*
X138073529Y-81200000D02*
X138706397Y-81200000D01*
X138706397Y-81200000D02*
X139216397Y-80690000D01*
%TO.N,D-*%
X137675000Y-80750000D02*
X138520000Y-80750000D01*
X138800000Y-79940000D02*
X139330000Y-79940000D01*
X138520000Y-80750000D02*
X138800000Y-80470000D01*
X138800000Y-80470000D02*
X138800000Y-79940000D01*
X139330000Y-79940000D02*
X139850000Y-79420000D01*
%TO.N,D+*%
X148250000Y-110240000D02*
X148274999Y-110215001D01*
%TO.N,D-*%
X148725001Y-108699999D02*
X148925000Y-108500000D01*
%TO.N,D+*%
X148274999Y-110215001D02*
X148274999Y-108699999D01*
X148274999Y-108699999D02*
X148075000Y-108500000D01*
%TO.N,D-*%
X148750000Y-110240000D02*
X148725001Y-110215001D01*
X148725001Y-110215001D02*
X148725001Y-108699999D01*
%TO.N,GND*%
X147100000Y-71900000D02*
X145700000Y-70500000D01*
X147100000Y-71900000D02*
X148500000Y-70500000D01*
X147100000Y-71900000D02*
X148500000Y-73300000D01*
X145700000Y-73300000D02*
X147100000Y-71900000D01*
X147100000Y-71900000D02*
X147100000Y-73300000D01*
X147100000Y-71900000D02*
X148500000Y-71900000D01*
X147100000Y-70500000D02*
X147100000Y-71900000D01*
X145700000Y-70500000D02*
X145700000Y-71900000D01*
X145700000Y-71900000D02*
X147100000Y-71900000D01*
X145700000Y-73300000D02*
X145700000Y-71900000D01*
X147100000Y-73300000D02*
X145700000Y-73300000D01*
X148500000Y-73300000D02*
X147100000Y-73300000D01*
X148500000Y-71900000D02*
X148500000Y-73300000D01*
X148500000Y-70500000D02*
X148500000Y-71900000D01*
X147100000Y-70500000D02*
X148500000Y-70500000D01*
X145700000Y-70500000D02*
X147100000Y-70500000D01*
X151000000Y-51750000D02*
X150949999Y-51800001D01*
X150949999Y-51800001D02*
X150949999Y-54525004D01*
%TO.N,RESET*%
X140350000Y-89200000D02*
X140350000Y-88054998D01*
X140350000Y-88054998D02*
X141479998Y-86925000D01*
%TO.N,GND*%
X153400000Y-99900000D02*
X154100000Y-100600000D01*
X144650000Y-90800000D02*
X144650000Y-93850000D01*
X144650000Y-93850000D02*
X148700000Y-97900000D01*
X154100000Y-100600000D02*
X155562500Y-100600000D01*
X150100000Y-57900000D02*
X150220001Y-57779999D01*
X139850000Y-64180000D02*
X140520000Y-64180000D01*
X140520000Y-64180000D02*
X147200000Y-57500000D01*
X150220001Y-57779999D02*
X150949999Y-57779999D01*
X157350000Y-64180000D02*
X150949999Y-57779999D01*
X150949999Y-57779999D02*
X150949999Y-54525004D01*
%TO.N,3V3*%
X148750003Y-54524998D02*
X148750003Y-57499997D01*
X140800000Y-65450000D02*
X139850000Y-65450000D01*
X148750003Y-57499997D02*
X140800000Y-65450000D01*
X143120002Y-86925000D02*
X144225000Y-86925000D01*
X144225000Y-86925000D02*
X150662500Y-93362500D01*
X150662500Y-93362500D02*
X150662500Y-97300000D01*
X155945000Y-87025000D02*
X155945000Y-92017500D01*
X155945000Y-92017500D02*
X150662500Y-97300000D01*
%TO.N,GND*%
X162090000Y-106050000D02*
X162000000Y-106050000D01*
X157150000Y-90800000D02*
X157150000Y-92076346D01*
X166550000Y-100523654D02*
X166550000Y-105756346D01*
X165476346Y-106830000D02*
X162780000Y-106830000D01*
X157150000Y-92076346D02*
X164523654Y-99450000D01*
X162780000Y-106830000D02*
X162000000Y-106050000D01*
X164523654Y-99450000D02*
X165476346Y-99450000D01*
X165476346Y-99450000D02*
X166550000Y-100523654D01*
X166550000Y-105756346D02*
X165476346Y-106830000D01*
%TO.N,VBUS*%
X150700000Y-111090000D02*
X147500000Y-111090000D01*
X132499997Y-101479999D02*
X131349999Y-102629997D01*
X146500000Y-112090000D02*
X147500000Y-111090000D01*
X131349999Y-102629997D02*
X131349999Y-107036346D01*
X131349999Y-107036346D02*
X136403653Y-112090000D01*
X136403653Y-112090000D02*
X146500000Y-112090000D01*
%TO.N,3V3*%
X150662500Y-97300000D02*
X143550000Y-104412500D01*
X143550000Y-104412500D02*
X143550000Y-104800000D01*
X132499999Y-104020000D02*
X142770000Y-104020000D01*
X142770000Y-104020000D02*
X143550000Y-104800000D01*
%TO.N,GND*%
X132499999Y-106560000D02*
X143090000Y-106560000D01*
X143090000Y-106560000D02*
X143550000Y-106100000D01*
%TO.N,3V3*%
X165000000Y-105680000D02*
X166150000Y-104530000D01*
X166150000Y-104530000D02*
X166150000Y-102663654D01*
X166150000Y-102663654D02*
X165236346Y-101750000D01*
X165236346Y-101750000D02*
X158562500Y-101750000D01*
X158562500Y-101750000D02*
X154912500Y-98100000D01*
X154912500Y-98100000D02*
X151462500Y-98100000D01*
X151462500Y-98100000D02*
X150662500Y-97300000D01*
%TO.N,GND*%
X156365000Y-106050000D02*
X156365000Y-101402500D01*
X156365000Y-101402500D02*
X155562500Y-100600000D01*
X165000000Y-103140000D02*
X162090000Y-106050000D01*
X162000000Y-106050000D02*
X156365000Y-106050000D01*
X151700000Y-110240000D02*
X155125000Y-106815000D01*
X155125000Y-106815000D02*
X155600000Y-106815000D01*
X155600000Y-106815000D02*
X156365000Y-106050000D01*
%TO.N,VBUS*%
X150900000Y-110240000D02*
X150700000Y-110440000D01*
X146300000Y-110440000D02*
X146100000Y-110240000D01*
X150700000Y-110440000D02*
X150700000Y-111090000D01*
X147500000Y-111090000D02*
X146300000Y-111090000D01*
X146300000Y-111090000D02*
X146300000Y-110440000D01*
%TO.N,CC2*%
X154725000Y-106050000D02*
X153665000Y-106050000D01*
X153665000Y-106050000D02*
X150250000Y-109465000D01*
X150250000Y-109465000D02*
X150250000Y-110240000D01*
%TO.N,GND*%
X152245000Y-106100000D02*
X153060000Y-105285000D01*
X153060000Y-105285000D02*
X155600000Y-105285000D01*
X155600000Y-105285000D02*
X156365000Y-106050000D01*
%TO.N,CC1*%
X147250000Y-110240000D02*
X147250000Y-108150000D01*
X147250000Y-108150000D02*
X149300000Y-106100000D01*
X149300000Y-106100000D02*
X150605000Y-106100000D01*
%TO.N,VBUS*%
X145610000Y-106100000D02*
X146100000Y-106590000D01*
X146100000Y-106590000D02*
X146100000Y-110240000D01*
X145610000Y-106100000D02*
X145870500Y-106100000D01*
X145870500Y-106100000D02*
X146213500Y-105757000D01*
X146213500Y-105757000D02*
X146213500Y-105250349D01*
X146213500Y-105250349D02*
X145763151Y-104800000D01*
X145763151Y-104800000D02*
X145610000Y-104800000D01*
%TO.N,GND*%
X143550000Y-106100000D02*
X143930000Y-106100000D01*
X143930000Y-106100000D02*
X144580000Y-105450000D01*
X145300000Y-110240000D02*
X143700000Y-108640000D01*
X143700000Y-108640000D02*
X143700000Y-107800000D01*
X143700000Y-107800000D02*
X143550000Y-107650000D01*
X143550000Y-107650000D02*
X143550000Y-106100000D01*
%TD*%
M02*
