%TF.GenerationSoftware,KiCad,Pcbnew,10.0.3*%
%TF.CreationDate,2026-06-28T15:12:38-07:00*%
%TF.ProjectId,Board,426f6172-642e-46b6-9963-61645f706362,rev?*%
%TF.SameCoordinates,Original*%
%TF.FileFunction,Legend,Top*%
%TF.FilePolarity,Positive*%
%FSLAX46Y46*%
G04 Gerber Fmt 4.6, Leading zero omitted, Abs format (unit mm)*
G04 Created by KiCad (PCBNEW 10.0.3) date 2026-06-28 15:12:38*
%MOMM*%
%LPD*%
G01*
G04 APERTURE LIST*
%ADD10C,0.158750*%
%ADD11C,0.150000*%
%ADD12C,0.098425*%
%ADD13C,0.250000*%
%ADD14C,0.060000*%
%ADD15C,0.000000*%
%ADD16C,0.127000*%
%ADD17C,0.120000*%
G04 APERTURE END LIST*
D10*
X165729999Y-57999271D02*
X165729999Y-56729271D01*
X166576666Y-56729271D02*
X166818571Y-56729271D01*
X166818571Y-56729271D02*
X166939523Y-56789747D01*
X166939523Y-56789747D02*
X167060476Y-56910699D01*
X167060476Y-56910699D02*
X167120952Y-57152604D01*
X167120952Y-57152604D02*
X167120952Y-57575937D01*
X167120952Y-57575937D02*
X167060476Y-57817842D01*
X167060476Y-57817842D02*
X166939523Y-57938795D01*
X166939523Y-57938795D02*
X166818571Y-57999271D01*
X166818571Y-57999271D02*
X166576666Y-57999271D01*
X166576666Y-57999271D02*
X166455714Y-57938795D01*
X166455714Y-57938795D02*
X166334761Y-57817842D01*
X166334761Y-57817842D02*
X166274285Y-57575937D01*
X166274285Y-57575937D02*
X166274285Y-57152604D01*
X166274285Y-57152604D02*
X166334761Y-56910699D01*
X166334761Y-56910699D02*
X166455714Y-56789747D01*
X166455714Y-56789747D02*
X166576666Y-56729271D01*
X168330476Y-57999271D02*
X167604761Y-57999271D01*
X167967618Y-57999271D02*
X167967618Y-56729271D01*
X167967618Y-56729271D02*
X167846666Y-56910699D01*
X167846666Y-56910699D02*
X167725714Y-57031652D01*
X167725714Y-57031652D02*
X167604761Y-57092128D01*
D11*
X146761905Y-105699819D02*
X146761905Y-106509342D01*
X146761905Y-106509342D02*
X146809524Y-106604580D01*
X146809524Y-106604580D02*
X146857143Y-106652200D01*
X146857143Y-106652200D02*
X146952381Y-106699819D01*
X146952381Y-106699819D02*
X147142857Y-106699819D01*
X147142857Y-106699819D02*
X147238095Y-106652200D01*
X147238095Y-106652200D02*
X147285714Y-106604580D01*
X147285714Y-106604580D02*
X147333333Y-106509342D01*
X147333333Y-106509342D02*
X147333333Y-105699819D01*
X147761905Y-106652200D02*
X147904762Y-106699819D01*
X147904762Y-106699819D02*
X148142857Y-106699819D01*
X148142857Y-106699819D02*
X148238095Y-106652200D01*
X148238095Y-106652200D02*
X148285714Y-106604580D01*
X148285714Y-106604580D02*
X148333333Y-106509342D01*
X148333333Y-106509342D02*
X148333333Y-106414104D01*
X148333333Y-106414104D02*
X148285714Y-106318866D01*
X148285714Y-106318866D02*
X148238095Y-106271247D01*
X148238095Y-106271247D02*
X148142857Y-106223628D01*
X148142857Y-106223628D02*
X147952381Y-106176009D01*
X147952381Y-106176009D02*
X147857143Y-106128390D01*
X147857143Y-106128390D02*
X147809524Y-106080771D01*
X147809524Y-106080771D02*
X147761905Y-105985533D01*
X147761905Y-105985533D02*
X147761905Y-105890295D01*
X147761905Y-105890295D02*
X147809524Y-105795057D01*
X147809524Y-105795057D02*
X147857143Y-105747438D01*
X147857143Y-105747438D02*
X147952381Y-105699819D01*
X147952381Y-105699819D02*
X148190476Y-105699819D01*
X148190476Y-105699819D02*
X148333333Y-105747438D01*
X149095238Y-106176009D02*
X149238095Y-106223628D01*
X149238095Y-106223628D02*
X149285714Y-106271247D01*
X149285714Y-106271247D02*
X149333333Y-106366485D01*
X149333333Y-106366485D02*
X149333333Y-106509342D01*
X149333333Y-106509342D02*
X149285714Y-106604580D01*
X149285714Y-106604580D02*
X149238095Y-106652200D01*
X149238095Y-106652200D02*
X149142857Y-106699819D01*
X149142857Y-106699819D02*
X148761905Y-106699819D01*
X148761905Y-106699819D02*
X148761905Y-105699819D01*
X148761905Y-105699819D02*
X149095238Y-105699819D01*
X149095238Y-105699819D02*
X149190476Y-105747438D01*
X149190476Y-105747438D02*
X149238095Y-105795057D01*
X149238095Y-105795057D02*
X149285714Y-105890295D01*
X149285714Y-105890295D02*
X149285714Y-105985533D01*
X149285714Y-105985533D02*
X149238095Y-106080771D01*
X149238095Y-106080771D02*
X149190476Y-106128390D01*
X149190476Y-106128390D02*
X149095238Y-106176009D01*
X149095238Y-106176009D02*
X148761905Y-106176009D01*
X150285714Y-106699819D02*
X149714286Y-106699819D01*
X150000000Y-106699819D02*
X150000000Y-105699819D01*
X150000000Y-105699819D02*
X149904762Y-105842676D01*
X149904762Y-105842676D02*
X149809524Y-105937914D01*
X149809524Y-105937914D02*
X149714286Y-105985533D01*
X143818095Y-100254819D02*
X143818095Y-101064342D01*
X143818095Y-101064342D02*
X143865714Y-101159580D01*
X143865714Y-101159580D02*
X143913333Y-101207200D01*
X143913333Y-101207200D02*
X144008571Y-101254819D01*
X144008571Y-101254819D02*
X144199047Y-101254819D01*
X144199047Y-101254819D02*
X144294285Y-101207200D01*
X144294285Y-101207200D02*
X144341904Y-101159580D01*
X144341904Y-101159580D02*
X144389523Y-101064342D01*
X144389523Y-101064342D02*
X144389523Y-100254819D01*
X144818095Y-100350057D02*
X144865714Y-100302438D01*
X144865714Y-100302438D02*
X144960952Y-100254819D01*
X144960952Y-100254819D02*
X145199047Y-100254819D01*
X145199047Y-100254819D02*
X145294285Y-100302438D01*
X145294285Y-100302438D02*
X145341904Y-100350057D01*
X145341904Y-100350057D02*
X145389523Y-100445295D01*
X145389523Y-100445295D02*
X145389523Y-100540533D01*
X145389523Y-100540533D02*
X145341904Y-100683390D01*
X145341904Y-100683390D02*
X144770476Y-101254819D01*
X144770476Y-101254819D02*
X145389523Y-101254819D01*
X147838095Y-59629819D02*
X147838095Y-60439342D01*
X147838095Y-60439342D02*
X147885714Y-60534580D01*
X147885714Y-60534580D02*
X147933333Y-60582200D01*
X147933333Y-60582200D02*
X148028571Y-60629819D01*
X148028571Y-60629819D02*
X148219047Y-60629819D01*
X148219047Y-60629819D02*
X148314285Y-60582200D01*
X148314285Y-60582200D02*
X148361904Y-60534580D01*
X148361904Y-60534580D02*
X148409523Y-60439342D01*
X148409523Y-60439342D02*
X148409523Y-59629819D01*
X149409523Y-60629819D02*
X148838095Y-60629819D01*
X149123809Y-60629819D02*
X149123809Y-59629819D01*
X149123809Y-59629819D02*
X149028571Y-59772676D01*
X149028571Y-59772676D02*
X148933333Y-59867914D01*
X148933333Y-59867914D02*
X148838095Y-59915533D01*
X153666667Y-85607200D02*
X153809524Y-85654819D01*
X153809524Y-85654819D02*
X154047619Y-85654819D01*
X154047619Y-85654819D02*
X154142857Y-85607200D01*
X154142857Y-85607200D02*
X154190476Y-85559580D01*
X154190476Y-85559580D02*
X154238095Y-85464342D01*
X154238095Y-85464342D02*
X154238095Y-85369104D01*
X154238095Y-85369104D02*
X154190476Y-85273866D01*
X154190476Y-85273866D02*
X154142857Y-85226247D01*
X154142857Y-85226247D02*
X154047619Y-85178628D01*
X154047619Y-85178628D02*
X153857143Y-85131009D01*
X153857143Y-85131009D02*
X153761905Y-85083390D01*
X153761905Y-85083390D02*
X153714286Y-85035771D01*
X153714286Y-85035771D02*
X153666667Y-84940533D01*
X153666667Y-84940533D02*
X153666667Y-84845295D01*
X153666667Y-84845295D02*
X153714286Y-84750057D01*
X153714286Y-84750057D02*
X153761905Y-84702438D01*
X153761905Y-84702438D02*
X153857143Y-84654819D01*
X153857143Y-84654819D02*
X154095238Y-84654819D01*
X154095238Y-84654819D02*
X154238095Y-84702438D01*
X154571429Y-84654819D02*
X154809524Y-85654819D01*
X154809524Y-85654819D02*
X155000000Y-84940533D01*
X155000000Y-84940533D02*
X155190476Y-85654819D01*
X155190476Y-85654819D02*
X155428572Y-84654819D01*
X155761905Y-84750057D02*
X155809524Y-84702438D01*
X155809524Y-84702438D02*
X155904762Y-84654819D01*
X155904762Y-84654819D02*
X156142857Y-84654819D01*
X156142857Y-84654819D02*
X156238095Y-84702438D01*
X156238095Y-84702438D02*
X156285714Y-84750057D01*
X156285714Y-84750057D02*
X156333333Y-84845295D01*
X156333333Y-84845295D02*
X156333333Y-84940533D01*
X156333333Y-84940533D02*
X156285714Y-85083390D01*
X156285714Y-85083390D02*
X155714286Y-85654819D01*
X155714286Y-85654819D02*
X156333333Y-85654819D01*
X141166667Y-85607200D02*
X141309524Y-85654819D01*
X141309524Y-85654819D02*
X141547619Y-85654819D01*
X141547619Y-85654819D02*
X141642857Y-85607200D01*
X141642857Y-85607200D02*
X141690476Y-85559580D01*
X141690476Y-85559580D02*
X141738095Y-85464342D01*
X141738095Y-85464342D02*
X141738095Y-85369104D01*
X141738095Y-85369104D02*
X141690476Y-85273866D01*
X141690476Y-85273866D02*
X141642857Y-85226247D01*
X141642857Y-85226247D02*
X141547619Y-85178628D01*
X141547619Y-85178628D02*
X141357143Y-85131009D01*
X141357143Y-85131009D02*
X141261905Y-85083390D01*
X141261905Y-85083390D02*
X141214286Y-85035771D01*
X141214286Y-85035771D02*
X141166667Y-84940533D01*
X141166667Y-84940533D02*
X141166667Y-84845295D01*
X141166667Y-84845295D02*
X141214286Y-84750057D01*
X141214286Y-84750057D02*
X141261905Y-84702438D01*
X141261905Y-84702438D02*
X141357143Y-84654819D01*
X141357143Y-84654819D02*
X141595238Y-84654819D01*
X141595238Y-84654819D02*
X141738095Y-84702438D01*
X142071429Y-84654819D02*
X142309524Y-85654819D01*
X142309524Y-85654819D02*
X142500000Y-84940533D01*
X142500000Y-84940533D02*
X142690476Y-85654819D01*
X142690476Y-85654819D02*
X142928572Y-84654819D01*
X143833333Y-85654819D02*
X143261905Y-85654819D01*
X143547619Y-85654819D02*
X143547619Y-84654819D01*
X143547619Y-84654819D02*
X143452381Y-84797676D01*
X143452381Y-84797676D02*
X143357143Y-84892914D01*
X143357143Y-84892914D02*
X143261905Y-84940533D01*
D12*
X154849383Y-86152014D02*
X154718149Y-85964538D01*
X154624411Y-86152014D02*
X154624411Y-85758313D01*
X154624411Y-85758313D02*
X154774392Y-85758313D01*
X154774392Y-85758313D02*
X154811888Y-85777061D01*
X154811888Y-85777061D02*
X154830635Y-85795809D01*
X154830635Y-85795809D02*
X154849383Y-85833304D01*
X154849383Y-85833304D02*
X154849383Y-85889547D01*
X154849383Y-85889547D02*
X154830635Y-85927042D01*
X154830635Y-85927042D02*
X154811888Y-85945790D01*
X154811888Y-85945790D02*
X154774392Y-85964538D01*
X154774392Y-85964538D02*
X154624411Y-85964538D01*
X155186841Y-85889547D02*
X155186841Y-86152014D01*
X155093103Y-85739566D02*
X154999364Y-86020781D01*
X154999364Y-86020781D02*
X155243084Y-86020781D01*
X142444383Y-88152014D02*
X142313149Y-87964538D01*
X142219411Y-88152014D02*
X142219411Y-87758313D01*
X142219411Y-87758313D02*
X142369392Y-87758313D01*
X142369392Y-87758313D02*
X142406888Y-87777061D01*
X142406888Y-87777061D02*
X142425635Y-87795809D01*
X142425635Y-87795809D02*
X142444383Y-87833304D01*
X142444383Y-87833304D02*
X142444383Y-87889547D01*
X142444383Y-87889547D02*
X142425635Y-87927042D01*
X142425635Y-87927042D02*
X142406888Y-87945790D01*
X142406888Y-87945790D02*
X142369392Y-87964538D01*
X142369392Y-87964538D02*
X142219411Y-87964538D01*
X142575617Y-87758313D02*
X142819336Y-87758313D01*
X142819336Y-87758313D02*
X142688103Y-87908295D01*
X142688103Y-87908295D02*
X142744346Y-87908295D01*
X142744346Y-87908295D02*
X142781841Y-87927042D01*
X142781841Y-87927042D02*
X142800589Y-87945790D01*
X142800589Y-87945790D02*
X142819336Y-87983285D01*
X142819336Y-87983285D02*
X142819336Y-88077024D01*
X142819336Y-88077024D02*
X142800589Y-88114519D01*
X142800589Y-88114519D02*
X142781841Y-88133267D01*
X142781841Y-88133267D02*
X142744346Y-88152014D01*
X142744346Y-88152014D02*
X142631860Y-88152014D01*
X142631860Y-88152014D02*
X142594364Y-88133267D01*
X142594364Y-88133267D02*
X142575617Y-88114519D01*
X155269383Y-105177014D02*
X155138149Y-104989538D01*
X155044411Y-105177014D02*
X155044411Y-104783313D01*
X155044411Y-104783313D02*
X155194392Y-104783313D01*
X155194392Y-104783313D02*
X155231888Y-104802061D01*
X155231888Y-104802061D02*
X155250635Y-104820809D01*
X155250635Y-104820809D02*
X155269383Y-104858304D01*
X155269383Y-104858304D02*
X155269383Y-104914547D01*
X155269383Y-104914547D02*
X155250635Y-104952042D01*
X155250635Y-104952042D02*
X155231888Y-104970790D01*
X155231888Y-104970790D02*
X155194392Y-104989538D01*
X155194392Y-104989538D02*
X155044411Y-104989538D01*
X155419364Y-104820809D02*
X155438112Y-104802061D01*
X155438112Y-104802061D02*
X155475607Y-104783313D01*
X155475607Y-104783313D02*
X155569346Y-104783313D01*
X155569346Y-104783313D02*
X155606841Y-104802061D01*
X155606841Y-104802061D02*
X155625589Y-104820809D01*
X155625589Y-104820809D02*
X155644336Y-104858304D01*
X155644336Y-104858304D02*
X155644336Y-104895799D01*
X155644336Y-104895799D02*
X155625589Y-104952042D01*
X155625589Y-104952042D02*
X155400617Y-105177014D01*
X155400617Y-105177014D02*
X155644336Y-105177014D01*
X151149383Y-105227014D02*
X151018149Y-105039538D01*
X150924411Y-105227014D02*
X150924411Y-104833313D01*
X150924411Y-104833313D02*
X151074392Y-104833313D01*
X151074392Y-104833313D02*
X151111888Y-104852061D01*
X151111888Y-104852061D02*
X151130635Y-104870809D01*
X151130635Y-104870809D02*
X151149383Y-104908304D01*
X151149383Y-104908304D02*
X151149383Y-104964547D01*
X151149383Y-104964547D02*
X151130635Y-105002042D01*
X151130635Y-105002042D02*
X151111888Y-105020790D01*
X151111888Y-105020790D02*
X151074392Y-105039538D01*
X151074392Y-105039538D02*
X150924411Y-105039538D01*
X151524336Y-105227014D02*
X151299364Y-105227014D01*
X151411850Y-105227014D02*
X151411850Y-104833313D01*
X151411850Y-104833313D02*
X151374355Y-104889556D01*
X151374355Y-104889556D02*
X151336860Y-104927052D01*
X151336860Y-104927052D02*
X151299364Y-104945799D01*
D11*
X151993452Y-93754819D02*
X151517262Y-93754819D01*
X151517262Y-93754819D02*
X151517262Y-92754819D01*
X152326786Y-93231009D02*
X152660119Y-93231009D01*
X152802976Y-93754819D02*
X152326786Y-93754819D01*
X152326786Y-93754819D02*
X152326786Y-92754819D01*
X152326786Y-92754819D02*
X152802976Y-92754819D01*
X153231548Y-93754819D02*
X153231548Y-92754819D01*
X153231548Y-92754819D02*
X153469643Y-92754819D01*
X153469643Y-92754819D02*
X153612500Y-92802438D01*
X153612500Y-92802438D02*
X153707738Y-92897676D01*
X153707738Y-92897676D02*
X153755357Y-92992914D01*
X153755357Y-92992914D02*
X153802976Y-93183390D01*
X153802976Y-93183390D02*
X153802976Y-93326247D01*
X153802976Y-93326247D02*
X153755357Y-93516723D01*
X153755357Y-93516723D02*
X153707738Y-93611961D01*
X153707738Y-93611961D02*
X153612500Y-93707200D01*
X153612500Y-93707200D02*
X153469643Y-93754819D01*
X153469643Y-93754819D02*
X153231548Y-93754819D01*
X154755357Y-93754819D02*
X154183929Y-93754819D01*
X154469643Y-93754819D02*
X154469643Y-92754819D01*
X154469643Y-92754819D02*
X154374405Y-92897676D01*
X154374405Y-92897676D02*
X154279167Y-92992914D01*
X154279167Y-92992914D02*
X154183929Y-93040533D01*
X164666666Y-54494819D02*
X164666666Y-55209104D01*
X164666666Y-55209104D02*
X164619047Y-55351961D01*
X164619047Y-55351961D02*
X164523809Y-55447200D01*
X164523809Y-55447200D02*
X164380952Y-55494819D01*
X164380952Y-55494819D02*
X164285714Y-55494819D01*
X165095238Y-54590057D02*
X165142857Y-54542438D01*
X165142857Y-54542438D02*
X165238095Y-54494819D01*
X165238095Y-54494819D02*
X165476190Y-54494819D01*
X165476190Y-54494819D02*
X165571428Y-54542438D01*
X165571428Y-54542438D02*
X165619047Y-54590057D01*
X165619047Y-54590057D02*
X165666666Y-54685295D01*
X165666666Y-54685295D02*
X165666666Y-54780533D01*
X165666666Y-54780533D02*
X165619047Y-54923390D01*
X165619047Y-54923390D02*
X165047619Y-55494819D01*
X165047619Y-55494819D02*
X165666666Y-55494819D01*
X146319045Y-58884578D02*
X146271426Y-58932198D01*
X146271426Y-58932198D02*
X146128569Y-58979817D01*
X146128569Y-58979817D02*
X146033331Y-58979817D01*
X146033331Y-58979817D02*
X145890474Y-58932198D01*
X145890474Y-58932198D02*
X145795236Y-58836959D01*
X145795236Y-58836959D02*
X145747617Y-58741721D01*
X145747617Y-58741721D02*
X145699998Y-58551245D01*
X145699998Y-58551245D02*
X145699998Y-58408388D01*
X145699998Y-58408388D02*
X145747617Y-58217912D01*
X145747617Y-58217912D02*
X145795236Y-58122674D01*
X145795236Y-58122674D02*
X145890474Y-58027436D01*
X145890474Y-58027436D02*
X146033331Y-57979817D01*
X146033331Y-57979817D02*
X146128569Y-57979817D01*
X146128569Y-57979817D02*
X146271426Y-58027436D01*
X146271426Y-58027436D02*
X146319045Y-58075055D01*
X147176188Y-58979817D02*
X147176188Y-58456007D01*
X147176188Y-58456007D02*
X147128569Y-58360769D01*
X147128569Y-58360769D02*
X147033331Y-58313150D01*
X147033331Y-58313150D02*
X146842855Y-58313150D01*
X146842855Y-58313150D02*
X146747617Y-58360769D01*
X147176188Y-58932198D02*
X147080950Y-58979817D01*
X147080950Y-58979817D02*
X146842855Y-58979817D01*
X146842855Y-58979817D02*
X146747617Y-58932198D01*
X146747617Y-58932198D02*
X146699998Y-58836959D01*
X146699998Y-58836959D02*
X146699998Y-58741721D01*
X146699998Y-58741721D02*
X146747617Y-58646483D01*
X146747617Y-58646483D02*
X146842855Y-58598864D01*
X146842855Y-58598864D02*
X147080950Y-58598864D01*
X147080950Y-58598864D02*
X147176188Y-58551245D01*
X147652379Y-58979817D02*
X147652379Y-58313150D01*
X147652379Y-58503626D02*
X147699998Y-58408388D01*
X147699998Y-58408388D02*
X147747617Y-58360769D01*
X147747617Y-58360769D02*
X147842855Y-58313150D01*
X147842855Y-58313150D02*
X147938093Y-58313150D01*
X148699998Y-58979817D02*
X148699998Y-57979817D01*
X148699998Y-58932198D02*
X148604760Y-58979817D01*
X148604760Y-58979817D02*
X148414284Y-58979817D01*
X148414284Y-58979817D02*
X148319046Y-58932198D01*
X148319046Y-58932198D02*
X148271427Y-58884578D01*
X148271427Y-58884578D02*
X148223808Y-58789340D01*
X148223808Y-58789340D02*
X148223808Y-58503626D01*
X148223808Y-58503626D02*
X148271427Y-58408388D01*
X148271427Y-58408388D02*
X148319046Y-58360769D01*
X148319046Y-58360769D02*
X148414284Y-58313150D01*
X148414284Y-58313150D02*
X148604760Y-58313150D01*
X148604760Y-58313150D02*
X148699998Y-58360769D01*
X149699998Y-58979817D02*
X149128570Y-58979817D01*
X149414284Y-58979817D02*
X149414284Y-57979817D01*
X149414284Y-57979817D02*
X149319046Y-58122674D01*
X149319046Y-58122674D02*
X149223808Y-58217912D01*
X149223808Y-58217912D02*
X149128570Y-58265531D01*
%TO.C,USB1*%
D13*
X153070000Y-114020000D02*
X153070000Y-112020000D01*
X153070000Y-117450000D02*
X153070000Y-115970000D01*
X144000000Y-114010000D02*
X144000000Y-112030000D01*
X144000000Y-117590000D02*
X144000000Y-115980000D01*
X153000000Y-117590000D02*
X144000000Y-117590000D01*
D14*
X144080000Y-109970000D02*
G75*
G02*
X144020000Y-109970000I-30000J0D01*
G01*
X144020000Y-109970000D02*
G75*
G02*
X144080000Y-109970000I30000J0D01*
G01*
%TO.C,U2*%
D11*
X143500000Y-104370000D02*
X145660000Y-104370000D01*
X143500000Y-106530000D02*
X145660000Y-106530000D01*
X143020000Y-104800000D02*
G75*
G02*
X142880000Y-104800000I-70000J0D01*
G01*
X142880000Y-104800000D02*
G75*
G02*
X143020000Y-104800000I70000J0D01*
G01*
D14*
X143610000Y-104450000D02*
G75*
G02*
X143550000Y-104450000I-30000J0D01*
G01*
X143550000Y-104450000D02*
G75*
G02*
X143610000Y-104450000I30000J0D01*
G01*
%TO.C,U1*%
D13*
X155900000Y-62710000D02*
X155900000Y-57830000D01*
X155900000Y-57830000D02*
X153660000Y-57830000D01*
X153870000Y-62710000D02*
X153870000Y-57830000D01*
X153870000Y-57830000D02*
X151010000Y-57830000D01*
X151010000Y-57830000D02*
X151010000Y-59990000D01*
X151010000Y-59990000D02*
X148470000Y-59990000D01*
X148470000Y-59990000D02*
X148470000Y-57830000D01*
X148470000Y-57830000D02*
X145930000Y-57830000D01*
X145930000Y-57830000D02*
X145930000Y-59990000D01*
X145930000Y-59990000D02*
X143650000Y-59990000D01*
X143650000Y-59990000D02*
X143650000Y-57830000D01*
X143650000Y-57830000D02*
X141360000Y-57830000D01*
X141360000Y-57830000D02*
X141360000Y-61510000D01*
X139600000Y-62710000D02*
X157620000Y-62710000D01*
X157620000Y-63490000D02*
X157620000Y-56690000D01*
X156270000Y-82210000D02*
X157620000Y-82210000D01*
X157620000Y-82210000D02*
X157620000Y-81370000D01*
X139600000Y-81370000D02*
X139600000Y-82210000D01*
X139600000Y-82210000D02*
X140930000Y-82210000D01*
X139600000Y-56680000D02*
X139600000Y-63490000D01*
X157600000Y-56680000D02*
X139600000Y-56680000D01*
D14*
X139630000Y-56680000D02*
G75*
G02*
X139570000Y-56680000I-30000J0D01*
G01*
X139570000Y-56680000D02*
G75*
G02*
X139630000Y-56680000I30000J0D01*
G01*
D15*
%TO.C,SW2*%
D13*
X153410000Y-91530000D02*
X156590000Y-91530000D01*
X153410000Y-88470000D02*
X156590000Y-88470000D01*
X153980000Y-90760000D02*
X153980000Y-89240000D01*
X153980000Y-89240000D02*
X156020000Y-89240000D01*
X156020000Y-89240000D02*
X156020000Y-90760000D01*
X156020000Y-90760000D02*
X153980000Y-90760000D01*
X157100000Y-89930000D02*
X157100000Y-90070000D01*
X152900000Y-89930000D02*
X152900000Y-90070000D01*
D14*
X152730000Y-88600000D02*
G75*
G02*
X152670000Y-88600000I-30000J0D01*
G01*
X152670000Y-88600000D02*
G75*
G02*
X152730000Y-88600000I30000J0D01*
G01*
%TO.C,SW1*%
D13*
X140910000Y-91530000D02*
X144090000Y-91530000D01*
X140910000Y-88470000D02*
X144090000Y-88470000D01*
X141480000Y-90760000D02*
X141480000Y-89240000D01*
X141480000Y-89240000D02*
X143520000Y-89240000D01*
X143520000Y-89240000D02*
X143520000Y-90760000D01*
X143520000Y-90760000D02*
X141480000Y-90760000D01*
X144600000Y-89930000D02*
X144600000Y-90070000D01*
X140400000Y-89930000D02*
X140400000Y-90070000D01*
D14*
X140230000Y-88600000D02*
G75*
G02*
X140170000Y-88600000I-30000J0D01*
G01*
X140170000Y-88600000D02*
G75*
G02*
X140230000Y-88600000I30000J0D01*
G01*
%TO.C,R4*%
D16*
X155015000Y-86575000D02*
X155235000Y-86575000D01*
X155015000Y-87475000D02*
X155235000Y-87475000D01*
%TO.C,R3*%
X142410002Y-87374999D02*
X142190001Y-87375001D01*
X142409999Y-86474999D02*
X142189998Y-86475001D01*
%TO.C,R2*%
X155435000Y-105600000D02*
X155655000Y-105600000D01*
X155435000Y-106500000D02*
X155655000Y-106500000D01*
%TO.C,R1*%
X151315000Y-105650000D02*
X151535000Y-105650000D01*
X151315000Y-106550000D02*
X151535000Y-106550000D01*
%TO.C,LED1*%
D13*
X154512500Y-100750000D02*
X154512500Y-101450000D01*
X154512500Y-101450000D02*
X154512500Y-101450000D01*
X154512500Y-101450000D02*
X153812500Y-101450000D01*
X153812500Y-101450000D02*
X154512500Y-100750000D01*
X150612500Y-96450000D02*
X155612500Y-96450000D01*
X150612500Y-99720000D02*
X150612500Y-98180000D01*
X150612500Y-96570000D02*
X150612500Y-96450000D01*
X150612500Y-101450000D02*
X150612500Y-101330000D01*
X155612500Y-101450000D02*
X150612500Y-101450000D01*
X155612500Y-101330000D02*
X155612500Y-101450000D01*
X155612500Y-96450000D02*
X155612500Y-96570000D01*
X155612500Y-98180000D02*
X155612500Y-99720000D01*
D14*
X150442500Y-96450000D02*
G75*
G02*
X150382500Y-96450000I-30000J0D01*
G01*
X150382500Y-96450000D02*
G75*
G02*
X150442500Y-96450000I30000J0D01*
G01*
D13*
X154612500Y-98950000D02*
G75*
G02*
X151612500Y-98950000I-1500000J0D01*
G01*
X151612500Y-98950000D02*
G75*
G02*
X154612500Y-98950000I1500000J0D01*
G01*
X150212500Y-96450000D02*
G75*
G02*
X150012500Y-96450000I-100000J0D01*
G01*
X150012500Y-96450000D02*
G75*
G02*
X150212500Y-96450000I100000J0D01*
G01*
D15*
G36*
X154512497Y-101350021D02*
G01*
X154412497Y-101450020D01*
X153812473Y-101450020D01*
X154512497Y-100749996D01*
X154512497Y-101350021D01*
G37*
%TO.C,J2*%
D17*
X163620000Y-56040000D02*
X165000000Y-56040000D01*
X163620000Y-57420000D02*
X163620000Y-56040000D01*
X163620000Y-58690000D02*
X163620000Y-107060000D01*
X163620000Y-58690000D02*
X166380000Y-58690000D01*
X163620000Y-107060000D02*
X166380000Y-107060000D01*
X166380000Y-58690000D02*
X166380000Y-107060000D01*
%TO.C,Card1*%
D13*
X154940003Y-39524999D02*
X154940002Y-42464998D01*
X143000005Y-54525001D02*
X144849999Y-54525001D01*
X143000005Y-54525001D02*
X142209998Y-54524996D01*
X142209998Y-54524996D02*
X142209999Y-52424997D01*
X142209999Y-52424997D02*
X142199999Y-52425003D01*
X139719998Y-45254998D02*
X139720002Y-52425001D01*
X139720002Y-52425001D02*
X142209999Y-52424997D01*
X154960000Y-52474996D02*
X154960000Y-45315000D01*
X154940003Y-39524999D02*
X139700002Y-39525000D01*
X139700002Y-39525000D02*
X139699996Y-42514999D01*
D14*
X139660002Y-54735000D02*
G75*
G02*
X139599998Y-54735000I-30002J0D01*
G01*
X139599998Y-54735000D02*
G75*
G02*
X139660002Y-54735000I30002J0D01*
G01*
D13*
X144659997Y-53774997D02*
G75*
G02*
X144560001Y-53774997I-49998J0D01*
G01*
X144560001Y-53774997D02*
G75*
G02*
X144659997Y-53774997I49998J0D01*
G01*
%TD*%
M02*
